<svg xmlns="http://www.w3.org/2000/svg" xmlns:xlink="http://www.w3.org/1999/xlink" width="500" zoomAndPan="magnify" viewBox="0 0 375 374.999991" height="500" preserveAspectRatio="xMidYMid meet" version="1.0"><defs><g/><clipPath id="da8649ea32"><path d="M 215 112 L 248.808594 112 L 248.808594 146 L 215 146 Z M 215 112 " clip-rule="nonzero"/></clipPath><clipPath id="5a8f5fd200"><path d="M 248.808594 114.945312 L 245.164062 145.167969 L 215.894531 141.683594 L 217.316406 129.523438 L 230.625 129.523438 L 230.625 124.554688 C 230.625 123.378906 230.5 122.214844 230.253906 121.0625 C 230.003906 119.914062 229.640625 118.800781 229.152344 117.726562 C 228.667969 116.652344 228.074219 115.640625 227.375 114.695312 C 226.671875 113.746094 225.878906 112.882812 224.992188 112.101562 Z M 248.808594 114.945312 " clip-rule="nonzero"/></clipPath><linearGradient x1="75.828594" gradientTransform="matrix(1.175481, 0, 0, 1.169283, 126.558106, 91.499328)" y1="17.79721" x2="104.42599" gradientUnits="userSpaceOnUse" y2="45.45962" id="d429f4fcca"><stop stop-opacity="1" stop-color="rgb(100%, 61.199951%, 0%)" offset="0"/><stop stop-opacity="1" stop-color="rgb(100%, 61.199951%, 0%)" offset="0.125"/><stop stop-opacity="1" stop-color="rgb(100%, 61.199951%, 0%)" offset="0.15625"/><stop stop-opacity="1" stop-color="rgb(100%, 61.169434%, 0%)" offset="0.171875"/><stop stop-opacity="1" stop-color="rgb(100%, 61.038208%, 0%)" offset="0.179687"/><stop stop-opacity="1" stop-color="rgb(100%, 60.83374%, 0%)" offset="0.1875"/><stop stop-opacity="1" stop-color="rgb(100%, 60.629272%, 0%)" offset="0.195312"/><stop stop-opacity="1" stop-color="rgb(100%, 60.424805%, 0%)" offset="0.203125"/><stop stop-opacity="1" stop-color="rgb(100%, 60.220337%, 0%)" offset="0.210937"/><stop stop-opacity="1" stop-color="rgb(100%, 60.015869%, 0%)" offset="0.21875"/><stop stop-opacity="1" stop-color="rgb(100%, 59.811401%, 0%)" offset="0.226562"/><stop stop-opacity="1" stop-color="rgb(100%, 59.606934%, 0%)" offset="0.234375"/><stop stop-opacity="1" stop-color="rgb(100%, 59.402466%, 0%)" offset="0.242187"/><stop stop-opacity="1" stop-color="rgb(100%, 59.197998%, 0%)" offset="0.25"/><stop stop-opacity="1" stop-color="rgb(100%, 58.99353%, 0%)" offset="0.257812"/><stop stop-opacity="1" stop-color="rgb(100%, 58.789062%, 0%)" offset="0.265625"/><stop stop-opacity="1" stop-color="rgb(100%, 58.584595%, 0%)" offset="0.273437"/><stop stop-opacity="1" stop-color="rgb(100%, 58.380127%, 0%)" offset="0.28125"/><stop stop-opacity="1" stop-color="rgb(100%, 58.175659%, 0%)" offset="0.289062"/><stop stop-opacity="1" stop-color="rgb(100%, 57.971191%, 0%)" offset="0.296875"/><stop stop-opacity="1" stop-color="rgb(100%, 57.766724%, 0%)" offset="0.304688"/><stop stop-opacity="1" stop-color="rgb(100%, 57.562256%, 0%)" offset="0.3125"/><stop stop-opacity="1" stop-color="rgb(100%, 57.357788%, 0%)" offset="0.320312"/><stop stop-opacity="1" stop-color="rgb(100%, 57.151794%, 0%)" offset="0.328125"/><stop stop-opacity="1" stop-color="rgb(100%, 56.947327%, 0%)" offset="0.335938"/><stop stop-opacity="1" stop-color="rgb(100%, 56.742859%, 0%)" offset="0.34375"/><stop stop-opacity="1" stop-color="rgb(100%, 56.538391%, 0%)" offset="0.351562"/><stop stop-opacity="1" stop-color="rgb(100%, 56.333923%, 0%)" offset="0.359375"/><stop stop-opacity="1" stop-color="rgb(100%, 56.129456%, 0%)" offset="0.367188"/><stop stop-opacity="1" stop-color="rgb(100%, 55.924988%, 0%)" offset="0.375"/><stop stop-opacity="1" stop-color="rgb(100%, 55.72052%, 0%)" offset="0.382812"/><stop stop-opacity="1" stop-color="rgb(100%, 55.516052%, 0%)" offset="0.390625"/><stop stop-opacity="1" stop-color="rgb(100%, 55.311584%, 0%)" offset="0.398438"/><stop stop-opacity="1" stop-color="rgb(100%, 55.107117%, 0%)" offset="0.40625"/><stop stop-opacity="1" stop-color="rgb(100%, 54.902649%, 0%)" offset="0.414063"/><stop stop-opacity="1" stop-color="rgb(100%, 54.698181%, 0%)" offset="0.421875"/><stop stop-opacity="1" stop-color="rgb(100%, 54.493713%, 0%)" offset="0.429688"/><stop stop-opacity="1" stop-color="rgb(100%, 54.289246%, 0%)" offset="0.4375"/><stop stop-opacity="1" stop-color="rgb(100%, 54.084778%, 0%)" offset="0.445312"/><stop stop-opacity="1" stop-color="rgb(100%, 53.88031%, 0%)" offset="0.453125"/><stop stop-opacity="1" stop-color="rgb(100%, 53.675842%, 0%)" offset="0.460937"/><stop stop-opacity="1" stop-color="rgb(100%, 53.471375%, 0%)" offset="0.46875"/><stop stop-opacity="1" stop-color="rgb(100%, 53.266907%, 0%)" offset="0.476562"/><stop stop-opacity="1" stop-color="rgb(100%, 53.062439%, 0%)" offset="0.484375"/><stop stop-opacity="1" stop-color="rgb(100%, 52.857971%, 0%)" offset="0.492187"/><stop stop-opacity="1" stop-color="rgb(100%, 52.653503%, 0%)" offset="0.494178"/><stop stop-opacity="1" stop-color="rgb(100%, 52.55127%, 0%)" offset="0.5"/><stop stop-opacity="1" stop-color="rgb(100%, 52.449036%, 0%)" offset="0.505822"/><stop stop-opacity="1" stop-color="rgb(100%, 52.346802%, 0%)" offset="0.507812"/><stop stop-opacity="1" stop-color="rgb(100%, 52.243042%, 0%)" offset="0.515625"/><stop stop-opacity="1" stop-color="rgb(100%, 52.038574%, 0%)" offset="0.523437"/><stop stop-opacity="1" stop-color="rgb(100%, 51.834106%, 0%)" offset="0.53125"/><stop stop-opacity="1" stop-color="rgb(100%, 51.629639%, 0%)" offset="0.539062"/><stop stop-opacity="1" stop-color="rgb(100%, 51.425171%, 0%)" offset="0.546875"/><stop stop-opacity="1" stop-color="rgb(100%, 51.220703%, 0%)" offset="0.554687"/><stop stop-opacity="1" stop-color="rgb(100%, 51.016235%, 0%)" offset="0.5625"/><stop stop-opacity="1" stop-color="rgb(100%, 50.811768%, 0%)" offset="0.570312"/><stop stop-opacity="1" stop-color="rgb(100%, 50.6073%, 0%)" offset="0.578125"/><stop stop-opacity="1" stop-color="rgb(100%, 50.402832%, 0%)" offset="0.585938"/><stop stop-opacity="1" stop-color="rgb(100%, 50.198364%, 0%)" offset="0.59375"/><stop stop-opacity="1" stop-color="rgb(100%, 49.993896%, 0%)" offset="0.601562"/><stop stop-opacity="1" stop-color="rgb(100%, 49.789429%, 0%)" offset="0.609375"/><stop stop-opacity="1" stop-color="rgb(100%, 49.584961%, 0%)" offset="0.617188"/><stop stop-opacity="1" stop-color="rgb(100%, 49.380493%, 0%)" offset="0.625"/><stop stop-opacity="1" stop-color="rgb(100%, 49.176025%, 0%)" offset="0.632812"/><stop stop-opacity="1" stop-color="rgb(100%, 48.971558%, 0%)" offset="0.640625"/><stop stop-opacity="1" stop-color="rgb(100%, 48.76709%, 0%)" offset="0.648438"/><stop stop-opacity="1" stop-color="rgb(100%, 48.562622%, 0%)" offset="0.65625"/><stop stop-opacity="1" stop-color="rgb(100%, 48.358154%, 0%)" offset="0.664062"/><stop stop-opacity="1" stop-color="rgb(100%, 48.153687%, 0%)" offset="0.671875"/><stop stop-opacity="1" stop-color="rgb(100%, 47.949219%, 0%)" offset="0.679688"/><stop stop-opacity="1" stop-color="rgb(100%, 47.744751%, 0%)" offset="0.6875"/><stop stop-opacity="1" stop-color="rgb(100%, 47.540283%, 0%)" offset="0.695312"/><stop stop-opacity="1" stop-color="rgb(100%, 47.335815%, 0%)" offset="0.703125"/><stop stop-opacity="1" stop-color="rgb(100%, 47.129822%, 0%)" offset="0.710938"/><stop stop-opacity="1" stop-color="rgb(100%, 46.925354%, 0%)" offset="0.71875"/><stop stop-opacity="1" stop-color="rgb(100%, 46.720886%, 0%)" offset="0.726562"/><stop stop-opacity="1" stop-color="rgb(100%, 46.516418%, 0%)" offset="0.734375"/><stop stop-opacity="1" stop-color="rgb(100%, 46.311951%, 0%)" offset="0.742188"/><stop stop-opacity="1" stop-color="rgb(100%, 46.107483%, 0%)" offset="0.75"/><stop stop-opacity="1" stop-color="rgb(100%, 45.903015%, 0%)" offset="0.757812"/><stop stop-opacity="1" stop-color="rgb(100%, 45.698547%, 0%)" offset="0.765625"/><stop stop-opacity="1" stop-color="rgb(100%, 45.49408%, 0%)" offset="0.773438"/><stop stop-opacity="1" stop-color="rgb(100%, 45.289612%, 0%)" offset="0.78125"/><stop stop-opacity="1" stop-color="rgb(100%, 45.085144%, 0%)" offset="0.789063"/><stop stop-opacity="1" stop-color="rgb(100%, 44.880676%, 0%)" offset="0.796875"/><stop stop-opacity="1" stop-color="rgb(100%, 44.676208%, 0%)" offset="0.804688"/><stop stop-opacity="1" stop-color="rgb(100%, 44.471741%, 0%)" offset="0.8125"/><stop stop-opacity="1" stop-color="rgb(100%, 44.267273%, 0%)" offset="0.820313"/><stop stop-opacity="1" stop-color="rgb(100%, 44.062805%, 0%)" offset="0.828125"/><stop stop-opacity="1" stop-color="rgb(100%, 43.858337%, 0%)" offset="0.835938"/><stop stop-opacity="1" stop-color="rgb(100%, 43.65387%, 0%)" offset="0.84375"/><stop stop-opacity="1" stop-color="rgb(100%, 43.449402%, 0%)" offset="0.851563"/><stop stop-opacity="1" stop-color="rgb(100%, 43.244934%, 0%)" offset="0.859375"/><stop stop-opacity="1" stop-color="rgb(100%, 43.040466%, 0%)" offset="0.867188"/><stop stop-opacity="1" stop-color="rgb(100%, 42.835999%, 0%)" offset="0.875"/><stop stop-opacity="1" stop-color="rgb(100%, 42.631531%, 0%)" offset="0.882812"/><stop stop-opacity="1" stop-color="rgb(100%, 42.427063%, 0%)" offset="0.890625"/><stop stop-opacity="1" stop-color="rgb(100%, 42.222595%, 0%)" offset="0.898438"/><stop stop-opacity="1" stop-color="rgb(100%, 42.016602%, 0%)" offset="0.90625"/><stop stop-opacity="1" stop-color="rgb(100%, 41.755676%, 0%)" offset="0.9375"/><stop stop-opacity="1" stop-color="rgb(100%, 41.598511%, 0%)" offset="1"/></linearGradient><clipPath id="bb65d322fc"><path d="M 170 91.265625 L 196 91.265625 L 196 104 L 170 104 Z M 170 91.265625 " clip-rule="nonzero"/></clipPath><clipPath id="92c3e30208"><path d="M 170.449219 102.515625 C 170.382812 101.898438 170.371094 101.28125 170.421875 100.664062 C 170.472656 100.046875 170.578125 99.441406 170.746094 98.84375 C 170.914062 98.246094 171.136719 97.671875 171.417969 97.117188 C 171.695312 96.5625 172.027344 96.042969 172.40625 95.550781 C 172.789062 95.058594 173.210938 94.609375 173.679688 94.203125 C 174.148438 93.792969 174.648438 93.429688 175.1875 93.117188 C 175.726562 92.804688 176.289062 92.546875 176.875 92.34375 C 177.464844 92.136719 178.066406 91.992188 178.683594 91.902344 C 179.296875 91.8125 179.917969 91.78125 180.539062 91.8125 C 181.160156 91.84375 181.773438 91.929688 182.378906 92.078125 C 182.984375 92.226562 183.570312 92.429688 184.136719 92.6875 C 184.703125 92.949219 185.238281 93.257812 185.742188 93.621094 C 186.246094 93.984375 186.710938 94.390625 187.140625 94.84375 C 187.566406 95.296875 187.945312 95.785156 188.277344 96.308594 C 188.605469 96.832031 188.886719 97.382812 189.109375 97.960938 C 189.335938 98.539062 189.5 99.132812 189.609375 99.742188 L 195.054688 100.855469 L 170.625 103.894531 Z M 170.449219 102.515625 " clip-rule="nonzero"/></clipPath><linearGradient x1="38.765431" gradientTransform="matrix(1.175481, 0, 0, 1.169283, 126.558106, 91.499328)" y1="12.633089" x2="57.347531" gradientUnits="userSpaceOnUse" y2="-1.013525" id="abb9e68abf"><stop stop-opacity="1" stop-color="rgb(100%, 61.199951%, 0%)" offset="0"/><stop stop-opacity="1" stop-color="rgb(100%, 61.161804%, 0%)" offset="0.125"/><stop stop-opacity="1" stop-color="rgb(100%, 60.934448%, 0%)" offset="0.140625"/><stop stop-opacity="1" stop-color="rgb(100%, 60.55603%, 0%)" offset="0.15625"/><stop stop-opacity="1" stop-color="rgb(100%, 60.179138%, 0%)" offset="0.171875"/><stop stop-opacity="1" stop-color="rgb(100%, 59.80072%, 0%)" offset="0.1875"/><stop stop-opacity="1" stop-color="rgb(100%, 59.422302%, 0%)" offset="0.203125"/><stop stop-opacity="1" stop-color="rgb(100%, 59.04541%, 0%)" offset="0.21875"/><stop stop-opacity="1" stop-color="rgb(100%, 58.666992%, 0%)" offset="0.234375"/><stop stop-opacity="1" stop-color="rgb(100%, 58.288574%, 0%)" offset="0.25"/><stop stop-opacity="1" stop-color="rgb(100%, 57.911682%, 0%)" offset="0.265625"/><stop stop-opacity="1" stop-color="rgb(100%, 57.533264%, 0%)" offset="0.265922"/><stop stop-opacity="1" stop-color="rgb(100%, 57.344055%, 0%)" offset="0.28125"/><stop stop-opacity="1" stop-color="rgb(100%, 57.154846%, 0%)" offset="0.296875"/><stop stop-opacity="1" stop-color="rgb(100%, 56.777954%, 0%)" offset="0.3125"/><stop stop-opacity="1" stop-color="rgb(100%, 56.399536%, 0%)" offset="0.328125"/><stop stop-opacity="1" stop-color="rgb(100%, 56.022644%, 0%)" offset="0.34375"/><stop stop-opacity="1" stop-color="rgb(100%, 55.644226%, 0%)" offset="0.359375"/><stop stop-opacity="1" stop-color="rgb(100%, 55.265808%, 0%)" offset="0.375"/><stop stop-opacity="1" stop-color="rgb(100%, 54.888916%, 0%)" offset="0.390625"/><stop stop-opacity="1" stop-color="rgb(100%, 54.510498%, 0%)" offset="0.40625"/><stop stop-opacity="1" stop-color="rgb(100%, 54.13208%, 0%)" offset="0.421875"/><stop stop-opacity="1" stop-color="rgb(100%, 53.755188%, 0%)" offset="0.4375"/><stop stop-opacity="1" stop-color="rgb(100%, 53.37677%, 0%)" offset="0.453125"/><stop stop-opacity="1" stop-color="rgb(100%, 52.998352%, 0%)" offset="0.46875"/><stop stop-opacity="1" stop-color="rgb(100%, 52.62146%, 0%)" offset="0.484375"/><stop stop-opacity="1" stop-color="rgb(100%, 52.243042%, 0%)" offset="0.5"/><stop stop-opacity="1" stop-color="rgb(100%, 51.864624%, 0%)" offset="0.515625"/><stop stop-opacity="1" stop-color="rgb(100%, 51.487732%, 0%)" offset="0.53125"/><stop stop-opacity="1" stop-color="rgb(100%, 51.109314%, 0%)" offset="0.546875"/><stop stop-opacity="1" stop-color="rgb(100%, 50.732422%, 0%)" offset="0.5625"/><stop stop-opacity="1" stop-color="rgb(100%, 50.354004%, 0%)" offset="0.578125"/><stop stop-opacity="1" stop-color="rgb(100%, 49.975586%, 0%)" offset="0.59375"/><stop stop-opacity="1" stop-color="rgb(100%, 49.598694%, 0%)" offset="0.609375"/><stop stop-opacity="1" stop-color="rgb(100%, 49.220276%, 0%)" offset="0.625"/><stop stop-opacity="1" stop-color="rgb(100%, 48.841858%, 0%)" offset="0.640625"/><stop stop-opacity="1" stop-color="rgb(100%, 48.464966%, 0%)" offset="0.65625"/><stop stop-opacity="1" stop-color="rgb(100%, 48.086548%, 0%)" offset="0.671875"/><stop stop-opacity="1" stop-color="rgb(100%, 47.70813%, 0%)" offset="0.6875"/><stop stop-opacity="1" stop-color="rgb(100%, 47.331238%, 0%)" offset="0.703125"/><stop stop-opacity="1" stop-color="rgb(100%, 46.95282%, 0%)" offset="0.71875"/><stop stop-opacity="1" stop-color="rgb(100%, 46.574402%, 0%)" offset="0.734078"/><stop stop-opacity="1" stop-color="rgb(100%, 46.386719%, 0%)" offset="0.734375"/><stop stop-opacity="1" stop-color="rgb(100%, 46.19751%, 0%)" offset="0.75"/><stop stop-opacity="1" stop-color="rgb(100%, 45.819092%, 0%)" offset="0.765625"/><stop stop-opacity="1" stop-color="rgb(100%, 45.4422%, 0%)" offset="0.78125"/><stop stop-opacity="1" stop-color="rgb(100%, 45.063782%, 0%)" offset="0.796875"/><stop stop-opacity="1" stop-color="rgb(100%, 44.685364%, 0%)" offset="0.8125"/><stop stop-opacity="1" stop-color="rgb(100%, 44.308472%, 0%)" offset="0.828125"/><stop stop-opacity="1" stop-color="rgb(100%, 43.930054%, 0%)" offset="0.84375"/><stop stop-opacity="1" stop-color="rgb(100%, 43.551636%, 0%)" offset="0.859375"/><stop stop-opacity="1" stop-color="rgb(100%, 43.174744%, 0%)" offset="0.875"/><stop stop-opacity="1" stop-color="rgb(100%, 42.796326%, 0%)" offset="0.890625"/><stop stop-opacity="1" stop-color="rgb(100%, 42.417908%, 0%)" offset="0.90625"/><stop stop-opacity="1" stop-color="rgb(100%, 42.041016%, 0%)" offset="0.921875"/><stop stop-opacity="1" stop-color="rgb(100%, 41.725159%, 0%)" offset="0.9375"/><stop stop-opacity="1" stop-color="rgb(100%, 41.598511%, 0%)" offset="1"/></linearGradient><clipPath id="e2226c9f9b"><path d="M 126.558594 123 L 174 123 L 174 196 L 126.558594 196 Z M 126.558594 123 " clip-rule="nonzero"/></clipPath><clipPath id="f5e23b5e93"><path d="M 214 103 L 248.808594 103 L 248.808594 111 L 214 111 Z M 214 103 " clip-rule="nonzero"/></clipPath><clipPath id="739117a8e5"><path d="M 222.949219 110.394531 L 248.808594 110.03125 L 241.273438 103.894531 L 214.917969 107.074219 C 217.773438 107.757812 220.449219 108.863281 222.949219 110.394531 Z M 222.949219 110.394531 " clip-rule="nonzero"/></clipPath><linearGradient x1="79.048965" gradientTransform="matrix(1.175481, 0, 0, 1.169283, 126.558106, 91.499328)" y1="21.815549" x2="101.249062" gradientUnits="userSpaceOnUse" y2="6.589149" id="5697cd8185"><stop stop-opacity="1" stop-color="rgb(100%, 61.199951%, 0%)" offset="0"/><stop stop-opacity="1" stop-color="rgb(100%, 61.199951%, 0%)" offset="0.116821"/><stop stop-opacity="1" stop-color="rgb(100%, 61.199951%, 0%)" offset="0.125"/><stop stop-opacity="1" stop-color="rgb(100%, 61.199951%, 0%)" offset="0.15625"/><stop stop-opacity="1" stop-color="rgb(100%, 61.021423%, 0%)" offset="0.171875"/><stop stop-opacity="1" stop-color="rgb(100%, 60.726929%, 0%)" offset="0.179688"/><stop stop-opacity="1" stop-color="rgb(100%, 60.493469%, 0%)" offset="0.1875"/><stop stop-opacity="1" stop-color="rgb(100%, 60.26001%, 0%)" offset="0.195313"/><stop stop-opacity="1" stop-color="rgb(100%, 60.02655%, 0%)" offset="0.203125"/><stop stop-opacity="1" stop-color="rgb(100%, 59.793091%, 0%)" offset="0.210938"/><stop stop-opacity="1" stop-color="rgb(100%, 59.561157%, 0%)" offset="0.21875"/><stop stop-opacity="1" stop-color="rgb(100%, 59.327698%, 0%)" offset="0.226563"/><stop stop-opacity="1" stop-color="rgb(100%, 59.094238%, 0%)" offset="0.234375"/><stop stop-opacity="1" stop-color="rgb(100%, 58.860779%, 0%)" offset="0.242188"/><stop stop-opacity="1" stop-color="rgb(100%, 58.627319%, 0%)" offset="0.25"/><stop stop-opacity="1" stop-color="rgb(100%, 58.395386%, 0%)" offset="0.257813"/><stop stop-opacity="1" stop-color="rgb(100%, 58.161926%, 0%)" offset="0.265625"/><stop stop-opacity="1" stop-color="rgb(100%, 57.928467%, 0%)" offset="0.273438"/><stop stop-opacity="1" stop-color="rgb(100%, 57.695007%, 0%)" offset="0.28125"/><stop stop-opacity="1" stop-color="rgb(100%, 57.461548%, 0%)" offset="0.289063"/><stop stop-opacity="1" stop-color="rgb(100%, 57.229614%, 0%)" offset="0.296875"/><stop stop-opacity="1" stop-color="rgb(100%, 56.996155%, 0%)" offset="0.304688"/><stop stop-opacity="1" stop-color="rgb(100%, 56.762695%, 0%)" offset="0.3125"/><stop stop-opacity="1" stop-color="rgb(100%, 56.529236%, 0%)" offset="0.320313"/><stop stop-opacity="1" stop-color="rgb(100%, 56.295776%, 0%)" offset="0.328125"/><stop stop-opacity="1" stop-color="rgb(100%, 56.063843%, 0%)" offset="0.335938"/><stop stop-opacity="1" stop-color="rgb(100%, 55.830383%, 0%)" offset="0.34375"/><stop stop-opacity="1" stop-color="rgb(100%, 55.596924%, 0%)" offset="0.351563"/><stop stop-opacity="1" stop-color="rgb(100%, 55.363464%, 0%)" offset="0.359375"/><stop stop-opacity="1" stop-color="rgb(100%, 55.130005%, 0%)" offset="0.367188"/><stop stop-opacity="1" stop-color="rgb(100%, 54.898071%, 0%)" offset="0.375"/><stop stop-opacity="1" stop-color="rgb(100%, 54.664612%, 0%)" offset="0.382813"/><stop stop-opacity="1" stop-color="rgb(100%, 54.431152%, 0%)" offset="0.390625"/><stop stop-opacity="1" stop-color="rgb(100%, 54.197693%, 0%)" offset="0.398438"/><stop stop-opacity="1" stop-color="rgb(100%, 53.964233%, 0%)" offset="0.40625"/><stop stop-opacity="1" stop-color="rgb(100%, 53.7323%, 0%)" offset="0.414063"/><stop stop-opacity="1" stop-color="rgb(100%, 53.49884%, 0%)" offset="0.421875"/><stop stop-opacity="1" stop-color="rgb(100%, 53.265381%, 0%)" offset="0.429688"/><stop stop-opacity="1" stop-color="rgb(100%, 53.031921%, 0%)" offset="0.4375"/><stop stop-opacity="1" stop-color="rgb(100%, 52.798462%, 0%)" offset="0.445313"/><stop stop-opacity="1" stop-color="rgb(100%, 52.566528%, 0%)" offset="0.453125"/><stop stop-opacity="1" stop-color="rgb(100%, 52.333069%, 0%)" offset="0.460938"/><stop stop-opacity="1" stop-color="rgb(100%, 52.099609%, 0%)" offset="0.46875"/><stop stop-opacity="1" stop-color="rgb(100%, 51.86615%, 0%)" offset="0.476563"/><stop stop-opacity="1" stop-color="rgb(100%, 51.63269%, 0%)" offset="0.484375"/><stop stop-opacity="1" stop-color="rgb(100%, 51.400757%, 0%)" offset="0.492188"/><stop stop-opacity="1" stop-color="rgb(100%, 51.167297%, 0%)" offset="0.5"/><stop stop-opacity="1" stop-color="rgb(100%, 50.933838%, 0%)" offset="0.507813"/><stop stop-opacity="1" stop-color="rgb(100%, 50.700378%, 0%)" offset="0.515625"/><stop stop-opacity="1" stop-color="rgb(100%, 50.466919%, 0%)" offset="0.523438"/><stop stop-opacity="1" stop-color="rgb(100%, 50.234985%, 0%)" offset="0.53125"/><stop stop-opacity="1" stop-color="rgb(100%, 50.001526%, 0%)" offset="0.539063"/><stop stop-opacity="1" stop-color="rgb(100%, 49.768066%, 0%)" offset="0.546875"/><stop stop-opacity="1" stop-color="rgb(100%, 49.534607%, 0%)" offset="0.554688"/><stop stop-opacity="1" stop-color="rgb(100%, 49.301147%, 0%)" offset="0.5625"/><stop stop-opacity="1" stop-color="rgb(100%, 49.069214%, 0%)" offset="0.570313"/><stop stop-opacity="1" stop-color="rgb(100%, 48.835754%, 0%)" offset="0.578125"/><stop stop-opacity="1" stop-color="rgb(100%, 48.602295%, 0%)" offset="0.585938"/><stop stop-opacity="1" stop-color="rgb(100%, 48.368835%, 0%)" offset="0.59375"/><stop stop-opacity="1" stop-color="rgb(100%, 48.135376%, 0%)" offset="0.601563"/><stop stop-opacity="1" stop-color="rgb(100%, 47.903442%, 0%)" offset="0.609375"/><stop stop-opacity="1" stop-color="rgb(100%, 47.669983%, 0%)" offset="0.617188"/><stop stop-opacity="1" stop-color="rgb(100%, 47.436523%, 0%)" offset="0.625"/><stop stop-opacity="1" stop-color="rgb(100%, 47.203064%, 0%)" offset="0.632813"/><stop stop-opacity="1" stop-color="rgb(100%, 46.969604%, 0%)" offset="0.640625"/><stop stop-opacity="1" stop-color="rgb(100%, 46.737671%, 0%)" offset="0.648438"/><stop stop-opacity="1" stop-color="rgb(100%, 46.504211%, 0%)" offset="0.65625"/><stop stop-opacity="1" stop-color="rgb(100%, 46.270752%, 0%)" offset="0.664062"/><stop stop-opacity="1" stop-color="rgb(100%, 46.037292%, 0%)" offset="0.671875"/><stop stop-opacity="1" stop-color="rgb(100%, 45.803833%, 0%)" offset="0.679688"/><stop stop-opacity="1" stop-color="rgb(100%, 45.571899%, 0%)" offset="0.6875"/><stop stop-opacity="1" stop-color="rgb(100%, 45.33844%, 0%)" offset="0.695312"/><stop stop-opacity="1" stop-color="rgb(100%, 45.10498%, 0%)" offset="0.703125"/><stop stop-opacity="1" stop-color="rgb(100%, 44.871521%, 0%)" offset="0.710938"/><stop stop-opacity="1" stop-color="rgb(100%, 44.638062%, 0%)" offset="0.71875"/><stop stop-opacity="1" stop-color="rgb(100%, 44.406128%, 0%)" offset="0.726563"/><stop stop-opacity="1" stop-color="rgb(100%, 44.172668%, 0%)" offset="0.734375"/><stop stop-opacity="1" stop-color="rgb(100%, 43.939209%, 0%)" offset="0.742188"/><stop stop-opacity="1" stop-color="rgb(100%, 43.70575%, 0%)" offset="0.75"/><stop stop-opacity="1" stop-color="rgb(100%, 43.47229%, 0%)" offset="0.757813"/><stop stop-opacity="1" stop-color="rgb(100%, 43.240356%, 0%)" offset="0.765625"/><stop stop-opacity="1" stop-color="rgb(100%, 43.006897%, 0%)" offset="0.773438"/><stop stop-opacity="1" stop-color="rgb(100%, 42.773438%, 0%)" offset="0.78125"/><stop stop-opacity="1" stop-color="rgb(100%, 42.539978%, 0%)" offset="0.789063"/><stop stop-opacity="1" stop-color="rgb(100%, 42.306519%, 0%)" offset="0.796875"/><stop stop-opacity="1" stop-color="rgb(100%, 42.074585%, 0%)" offset="0.804688"/><stop stop-opacity="1" stop-color="rgb(100%, 41.841125%, 0%)" offset="0.8125"/><stop stop-opacity="1" stop-color="rgb(100%, 41.661072%, 0%)" offset="0.875"/><stop stop-opacity="1" stop-color="rgb(100%, 41.598511%, 0%)" offset="0.883179"/><stop stop-opacity="1" stop-color="rgb(100%, 41.598511%, 0%)" offset="1"/></linearGradient><clipPath id="8b0575250a"><path d="M 133 112 L 238 112 L 238 202.265625 L 133 202.265625 Z M 133 112 " clip-rule="nonzero"/></clipPath></defs><path fill="#555555" d="M 204.84375 130.835938 C 204.054688 131.140625 203.289062 131.5 202.550781 131.914062 C 201.8125 132.328125 201.109375 132.792969 200.4375 133.308594 C 199.765625 133.824219 199.136719 134.382812 198.542969 134.988281 C 197.953125 135.59375 197.410156 136.238281 196.910156 136.921875 C 196.414062 137.605469 195.96875 138.320312 195.574219 139.066406 C 195.179688 139.8125 194.839844 140.582031 194.554688 141.378906 C 194.273438 142.171875 194.046875 142.984375 193.878906 143.8125 C 193.714844 144.636719 193.605469 145.472656 193.558594 146.316406 C 193.511719 147.539062 193.585938 148.753906 193.785156 149.964844 C 196.132812 147.714844 198.769531 145.875 201.695312 144.449219 C 204.621094 143.019531 207.699219 142.066406 210.921875 141.589844 L 212.472656 129.617188 C 209.894531 129.796875 207.351562 130.199219 204.84375 130.835938 Z M 204.84375 130.835938 " fill-opacity="1" fill-rule="nonzero"/><g clip-path="url(#da8649ea32)"><g clip-path="url(#5a8f5fd200)"><path fill="url(#d429f4fcca)" d="M 215.894531 112.101562 L 215.894531 145.167969 L 248.808594 145.167969 L 248.808594 112.101562 Z M 215.894531 112.101562 " fill-rule="nonzero"/></g></g><path fill="#555555" d="M 190.574219 106.535156 C 190.554688 107.15625 190.472656 107.765625 190.332031 108.367188 C 190.191406 108.96875 189.996094 109.554688 189.742188 110.117188 C 189.492188 110.683594 189.1875 111.21875 188.828125 111.726562 C 188.472656 112.234375 188.070312 112.703125 187.625 113.132812 C 187.175781 113.5625 186.691406 113.945312 186.171875 114.28125 C 185.648438 114.617188 185.101562 114.902344 184.523438 115.132812 C 183.945312 115.367188 183.351562 115.539062 182.742188 115.660156 C 182.132812 115.777344 181.515625 115.835938 180.894531 115.835938 C 180.273438 115.835938 179.65625 115.777344 179.046875 115.660156 C 178.4375 115.539062 177.84375 115.367188 177.265625 115.132812 C 176.691406 114.902344 176.140625 114.617188 175.617188 114.28125 C 175.097656 113.945312 174.613281 113.5625 174.167969 113.132812 C 173.71875 112.703125 173.316406 112.234375 172.960938 111.726562 C 172.605469 111.21875 172.296875 110.683594 172.046875 110.117188 C 171.792969 109.554688 171.597656 108.96875 171.457031 108.367188 C 171.316406 107.765625 171.234375 107.15625 171.214844 106.535156 C 171.214844 106.195312 171.214844 105.859375 171.214844 105.53125 L 190.035156 103.191406 C 190.414062 104.273438 190.59375 105.390625 190.574219 106.535156 Z M 190.574219 106.535156 " fill-opacity="1" fill-rule="nonzero"/><g clip-path="url(#bb65d322fc)"><g clip-path="url(#92c3e30208)"><path fill="url(#abb9e68abf)" d="M 170.371094 91.78125 L 170.371094 103.894531 L 195.054688 103.894531 L 195.054688 91.78125 Z M 170.371094 91.78125 " fill-rule="nonzero"/></g></g><g clip-path="url(#e2226c9f9b)"><path fill="#555555" d="M 172.402344 125.292969 C 172.402344 125.292969 172.402344 125.292969 172.402344 125.199219 C 172.398438 124.964844 172.347656 124.742188 172.253906 124.53125 C 172.160156 124.316406 172.027344 124.128906 171.859375 123.96875 C 171.691406 123.808594 171.5 123.683594 171.28125 123.597656 C 171.0625 123.515625 170.835938 123.472656 170.601562 123.480469 L 127.488281 124.238281 C 127.222656 124.238281 127 124.332031 126.8125 124.515625 C 126.628906 124.703125 126.535156 124.925781 126.535156 125.1875 C 126.535156 125.449219 126.628906 125.671875 126.8125 125.855469 C 127 126.042969 127.222656 126.132812 127.488281 126.132812 L 166.523438 126.917969 C 166.886719 126.921875 167.234375 126.992188 167.570312 127.121094 C 167.910156 127.253906 168.210938 127.441406 168.480469 127.679688 C 168.75 127.921875 168.96875 128.203125 169.136719 128.519531 C 169.300781 128.839844 169.40625 129.179688 169.453125 129.535156 C 169.476562 129.742188 169.480469 129.949219 169.460938 130.152344 C 169.445312 130.359375 169.40625 130.5625 169.34375 130.761719 C 169.285156 130.957031 169.203125 131.148438 169.101562 131.328125 C 169.003906 131.511719 168.882812 131.679688 168.746094 131.835938 C 168.613281 131.992188 168.460938 132.132812 168.292969 132.257812 C 168.128906 132.382812 167.953125 132.488281 167.761719 132.578125 C 167.574219 132.664062 167.378906 132.734375 167.175781 132.78125 C 166.972656 132.828125 166.769531 132.851562 166.558594 132.855469 L 141.226562 133.441406 C 141.082031 133.441406 140.945312 133.46875 140.808594 133.523438 C 140.675781 133.578125 140.558594 133.65625 140.457031 133.761719 C 140.351562 133.863281 140.273438 133.980469 140.21875 134.113281 C 140.164062 134.246094 140.136719 134.382812 140.136719 134.527344 C 140.136719 134.671875 140.164062 134.8125 140.21875 134.945312 C 140.273438 135.078125 140.351562 135.195312 140.457031 135.296875 C 140.558594 135.398438 140.675781 135.476562 140.808594 135.535156 C 140.945312 135.589844 141.082031 135.617188 141.226562 135.617188 L 167.089844 136.210938 C 167.488281 136.214844 167.875 136.296875 168.242188 136.453125 C 168.613281 136.609375 168.9375 136.832031 169.214844 137.121094 C 169.492188 137.40625 169.703125 137.734375 169.851562 138.109375 C 169.996094 138.480469 170.0625 138.867188 170.050781 139.265625 C 170.046875 139.648438 169.96875 140.019531 169.820312 140.378906 C 169.667969 140.734375 169.457031 141.046875 169.183594 141.320312 C 168.910156 141.59375 168.597656 141.808594 168.242188 141.960938 C 167.882812 142.113281 167.511719 142.191406 167.125 142.199219 L 132.660156 142.832031 C 132.515625 142.832031 132.378906 142.859375 132.25 142.910156 C 132.117188 142.964844 132.003906 143.042969 131.902344 143.140625 C 131.800781 143.242188 131.726562 143.355469 131.671875 143.488281 C 131.617188 143.617188 131.589844 143.753906 131.589844 143.894531 C 131.589844 144.035156 131.617188 144.171875 131.671875 144.300781 C 131.726562 144.433594 131.800781 144.546875 131.902344 144.648438 C 132.003906 144.746094 132.117188 144.824219 132.25 144.878906 C 132.378906 144.933594 132.515625 144.957031 132.660156 144.957031 L 166.3125 145.578125 C 166.53125 145.582031 166.746094 145.609375 166.957031 145.660156 C 167.167969 145.707031 167.371094 145.78125 167.566406 145.875 C 167.761719 145.96875 167.945312 146.082031 168.117188 146.214844 C 168.289062 146.347656 168.441406 146.496094 168.578125 146.664062 C 168.71875 146.832031 168.835938 147.011719 168.933594 147.203125 C 169.035156 147.394531 169.109375 147.597656 169.164062 147.804688 C 169.222656 148.015625 169.253906 148.226562 169.261719 148.445312 C 169.269531 148.660156 169.253906 148.875 169.214844 149.085938 C 169.160156 149.429688 169.050781 149.75 168.882812 150.050781 C 168.714844 150.355469 168.5 150.621094 168.242188 150.847656 C 167.980469 151.078125 167.6875 151.253906 167.367188 151.382812 C 167.042969 151.507812 166.707031 151.578125 166.359375 151.589844 L 150.398438 152.148438 C 150.25 152.148438 150.109375 152.179688 149.972656 152.234375 C 149.839844 152.289062 149.71875 152.367188 149.617188 152.472656 C 149.511719 152.574219 149.433594 152.695312 149.375 152.828125 C 149.320312 152.964844 149.292969 153.101562 149.292969 153.25 C 149.292969 153.394531 149.320312 153.535156 149.375 153.667969 C 149.433594 153.804688 149.511719 153.921875 149.617188 154.027344 C 149.71875 154.128906 149.839844 154.207031 149.972656 154.265625 C 150.109375 154.320312 150.25 154.347656 150.398438 154.347656 L 163.890625 154.816406 C 164.132812 154.824219 164.367188 154.863281 164.597656 154.925781 C 164.832031 154.988281 165.050781 155.078125 165.261719 155.195312 C 165.472656 155.3125 165.667969 155.453125 165.84375 155.613281 C 166.019531 155.773438 166.175781 155.953125 166.3125 156.152344 C 166.445312 156.351562 166.554688 156.5625 166.640625 156.785156 C 166.722656 157.011719 166.78125 157.242188 166.8125 157.476562 C 166.839844 157.714844 166.84375 157.953125 166.816406 158.191406 C 166.789062 158.429688 166.734375 158.660156 166.652344 158.886719 C 166.433594 159.46875 166.070312 159.941406 165.558594 160.300781 C 165.050781 160.660156 164.480469 160.847656 163.855469 160.859375 L 152.417969 161.246094 L 132.152344 161.773438 C 131.910156 161.773438 131.703125 161.859375 131.53125 162.03125 C 131.359375 162.203125 131.273438 162.40625 131.273438 162.648438 C 131.273438 162.890625 131.359375 163.097656 131.53125 163.269531 C 131.703125 163.441406 131.910156 163.527344 132.152344 163.527344 L 159.296875 164.242188 C 159.839844 164.25 160.347656 164.398438 160.8125 164.679688 C 161.28125 164.964844 161.644531 165.34375 161.90625 165.820312 C 162.167969 166.296875 162.289062 166.808594 162.273438 167.351562 C 162.261719 167.894531 162.109375 168.398438 161.824219 168.859375 C 161.554688 169.285156 161.203125 169.625 160.765625 169.878906 C 160.332031 170.132812 159.859375 170.265625 159.355469 170.285156 L 141.722656 170.90625 C 141.4375 170.917969 141.199219 171.023438 141 171.222656 C 140.800781 171.425781 140.695312 171.664062 140.6875 171.945312 C 140.683594 172.085938 140.707031 172.222656 140.753906 172.355469 C 140.804688 172.488281 140.878906 172.605469 140.976562 172.707031 C 141.074219 172.8125 141.1875 172.890625 141.316406 172.949219 C 141.445312 173.007812 141.578125 173.039062 141.722656 173.046875 L 155.945312 173.582031 C 156.195312 173.5625 156.425781 173.617188 156.640625 173.746094 C 156.855469 173.871094 157.015625 174.050781 157.117188 174.277344 C 157.214844 174.507812 157.242188 174.742188 157.191406 174.984375 C 157.140625 175.230469 157.023438 175.4375 156.839844 175.605469 C 156.121094 176.449219 155.382812 177.277344 154.59375 178.085938 C 148.554688 184.355469 141.503906 189.144531 133.433594 192.457031 L 134.609375 195.753906 C 135.035156 195.566406 181.359375 178.5625 172.402344 125.292969 Z M 172.402344 125.292969 " fill-opacity="1" fill-rule="nonzero"/></g><path fill="#555555" d="M 137.796875 135.464844 C 138.039062 135.464844 138.246094 135.378906 138.417969 135.207031 C 138.589844 135.035156 138.675781 134.828125 138.675781 134.585938 C 138.675781 134.34375 138.589844 134.136719 138.417969 133.96875 C 138.246094 133.796875 138.039062 133.710938 137.796875 133.710938 L 136.339844 133.710938 C 136.09375 133.710938 135.886719 133.796875 135.714844 133.96875 C 135.542969 134.136719 135.457031 134.34375 135.457031 134.585938 C 135.457031 134.828125 135.542969 135.035156 135.714844 135.207031 C 135.886719 135.378906 136.09375 135.464844 136.339844 135.464844 Z M 137.796875 135.464844 " fill-opacity="1" fill-rule="nonzero"/><path fill="#555555" d="M 147.800781 154.171875 C 148.042969 154.171875 148.25 154.085938 148.421875 153.917969 C 148.59375 153.746094 148.679688 153.539062 148.679688 153.296875 C 148.679688 153.054688 148.59375 152.847656 148.421875 152.675781 C 148.25 152.503906 148.042969 152.417969 147.800781 152.417969 L 143.789062 152.417969 C 143.546875 152.417969 143.339844 152.503906 143.167969 152.675781 C 142.996094 152.847656 142.910156 153.054688 142.910156 153.296875 C 142.910156 153.539062 142.996094 153.746094 143.167969 153.917969 C 143.339844 154.085938 143.546875 154.171875 143.789062 154.171875 Z M 147.800781 154.171875 " fill-opacity="1" fill-rule="nonzero"/><path fill="#555555" d="M 140.945312 154.171875 C 141.1875 154.171875 141.398438 154.085938 141.570312 153.917969 C 141.742188 153.746094 141.828125 153.539062 141.828125 153.296875 C 141.828125 153.054688 141.742188 152.847656 141.570312 152.675781 C 141.398438 152.503906 141.1875 152.417969 140.945312 152.417969 L 140.265625 152.417969 C 140.019531 152.417969 139.8125 152.503906 139.640625 152.675781 C 139.46875 152.847656 139.382812 153.054688 139.382812 153.296875 C 139.382812 153.539062 139.46875 153.746094 139.640625 153.917969 C 139.8125 154.085938 140.019531 154.171875 140.265625 154.171875 Z M 140.945312 154.171875 " fill-opacity="1" fill-rule="nonzero"/><path fill="#555555" d="M 138.558594 172.882812 C 138.804688 172.882812 139.011719 172.796875 139.183594 172.625 C 139.355469 172.453125 139.441406 172.246094 139.441406 172.003906 C 139.441406 171.761719 139.355469 171.554688 139.183594 171.382812 C 139.011719 171.214844 138.804688 171.128906 138.558594 171.128906 L 136.621094 171.128906 C 136.375 171.128906 136.167969 171.214844 135.996094 171.382812 C 135.824219 171.554688 135.738281 171.761719 135.738281 172.003906 C 135.738281 172.246094 135.824219 172.453125 135.996094 172.625 C 136.167969 172.796875 136.375 172.882812 136.621094 172.882812 Z M 138.558594 172.882812 " fill-opacity="1" fill-rule="nonzero"/><g clip-path="url(#f5e23b5e93)"><g clip-path="url(#739117a8e5)"><path fill="url(#5697cd8185)" d="M 214.917969 103.894531 L 214.917969 110.394531 L 248.808594 110.394531 L 248.808594 103.894531 Z M 214.917969 103.894531 " fill-rule="nonzero"/></g></g><g clip-path="url(#8b0575250a)"><path fill="#555555" d="M 211.109375 169.445312 C 210.351562 169.441406 209.597656 169.40625 208.84375 169.328125 C 208.09375 169.253906 207.34375 169.140625 206.601562 168.988281 C 205.859375 168.835938 205.128906 168.648438 204.40625 168.425781 C 203.683594 168.199219 202.972656 167.941406 202.277344 167.644531 C 201.582031 167.351562 200.902344 167.019531 200.238281 166.65625 C 199.574219 166.292969 198.929688 165.898438 198.308594 165.472656 C 197.683594 165.042969 197.085938 164.585938 196.507812 164.097656 C 195.929688 163.609375 195.378906 163.097656 194.855469 162.554688 C 194.332031 162.011719 193.835938 161.441406 193.367188 160.851562 C 192.898438 160.257812 192.460938 159.644531 192.058594 159.007812 C 191.652344 158.371094 191.28125 157.71875 190.941406 157.042969 C 190.601562 156.371094 190.296875 155.683594 190.027344 154.976562 C 189.757812 154.273438 189.523438 153.558594 189.328125 152.832031 C 189.128906 152.105469 188.96875 151.371094 188.847656 150.625 C 188.726562 149.882812 188.640625 149.136719 188.59375 148.382812 C 188.546875 147.632812 188.535156 146.878906 188.566406 146.128906 C 189.023438 133.992188 199.4375 124.554688 211.664062 124.554688 L 225.617188 124.554688 C 225.617188 123.789062 225.539062 123.027344 225.390625 122.273438 C 225.238281 121.519531 225.015625 120.789062 224.722656 120.082031 C 224.425781 119.371094 224.0625 118.695312 223.636719 118.058594 C 223.207031 117.421875 222.71875 116.828125 222.171875 116.285156 C 221.628906 115.742188 221.035156 115.257812 220.390625 114.832031 C 219.75 114.40625 219.074219 114.046875 218.359375 113.753906 C 217.644531 113.457031 216.910156 113.238281 216.152344 113.085938 C 215.398438 112.9375 214.632812 112.863281 213.859375 112.863281 L 211.109375 112.863281 C 210.066406 112.863281 209.027344 112.914062 207.988281 113.007812 C 206.949219 113.105469 205.917969 113.246094 204.894531 113.4375 C 203.867188 113.625 202.855469 113.863281 201.851562 114.144531 C 200.847656 114.425781 199.859375 114.75 198.882812 115.121094 C 197.910156 115.492188 196.953125 115.90625 196.019531 116.363281 C 195.082031 116.820312 194.167969 117.320312 193.277344 117.859375 C 192.390625 118.398438 191.523438 118.976562 190.6875 119.597656 C 189.851562 120.214844 189.042969 120.867188 188.265625 121.558594 C 187.488281 122.25 186.742188 122.976562 186.03125 123.734375 C 185.320312 124.492188 184.644531 125.28125 184.007812 126.101562 C 183.367188 126.921875 182.769531 127.769531 182.207031 128.644531 C 181.644531 129.519531 181.125 130.414062 180.644531 131.335938 C 180.167969 132.257812 179.730469 133.199219 179.335938 134.160156 C 178.941406 135.121094 178.59375 136.097656 178.289062 137.089844 C 177.988281 138.082031 177.730469 139.085938 177.515625 140.101562 C 177.304688 141.117188 177.140625 142.140625 177.023438 143.171875 C 176.808594 145.5625 176.445312 147.933594 175.929688 150.277344 C 175.363281 152.875 174.621094 155.421875 173.707031 157.914062 C 172.789062 160.410156 171.707031 162.832031 170.457031 165.179688 C 169.207031 167.527344 167.800781 169.777344 166.242188 171.933594 C 164.679688 174.089844 162.980469 176.128906 161.140625 178.050781 C 159.296875 179.976562 157.332031 181.765625 155.246094 183.421875 C 153.15625 185.078125 150.964844 186.582031 148.667969 187.9375 C 146.371094 189.296875 143.996094 190.492188 141.535156 191.523438 C 139.074219 192.554688 136.554688 193.414062 133.976562 194.105469 C 134.078125 194.480469 134.203125 194.851562 134.34375 195.214844 C 134.488281 195.578125 134.652344 195.933594 134.835938 196.28125 C 135.015625 196.625 135.21875 196.960938 135.4375 197.285156 C 135.65625 197.609375 135.894531 197.921875 136.144531 198.21875 C 136.398438 198.519531 136.667969 198.800781 136.953125 199.070312 C 137.238281 199.339844 137.539062 199.59375 137.851562 199.828125 C 138.164062 200.066406 138.488281 200.285156 138.824219 200.488281 C 139.160156 200.6875 139.507812 200.871094 139.863281 201.035156 C 140.222656 201.199219 140.585938 201.339844 140.957031 201.464844 C 141.332031 201.589844 141.707031 201.691406 142.09375 201.777344 C 142.476562 201.859375 142.863281 201.921875 143.253906 201.960938 C 143.644531 202.003906 144.039062 202.023438 144.429688 202.019531 C 144.824219 202.019531 145.214844 201.996094 145.605469 201.949219 C 145.996094 201.90625 146.382812 201.839844 146.765625 201.753906 C 147.148438 201.667969 147.523438 201.558594 147.898438 201.433594 C 148.269531 201.304688 148.632812 201.15625 148.984375 200.992188 C 152.730469 199.214844 156.285156 197.125 159.65625 194.722656 C 163.027344 192.316406 166.160156 189.636719 169.050781 186.679688 C 171.941406 183.722656 174.550781 180.535156 176.871094 177.117188 C 179.195312 173.699219 181.195312 170.105469 182.875 166.332031 C 183.660156 167.464844 184.511719 168.546875 185.429688 169.578125 C 186.34375 170.605469 187.320312 171.578125 188.355469 172.492188 C 189.390625 173.402344 190.476562 174.25 191.613281 175.03125 C 192.75 175.816406 193.929688 176.527344 195.15625 177.167969 C 196.378906 177.808594 197.636719 178.371094 198.929688 178.859375 C 200.222656 179.347656 201.539062 179.757812 202.882812 180.089844 C 204.222656 180.421875 205.582031 180.667969 206.953125 180.835938 C 208.328125 181.003906 209.703125 181.089844 211.085938 181.089844 C 211.664062 181.089844 212.238281 181.121094 212.808594 181.175781 C 213.382812 181.234375 213.949219 181.316406 214.515625 181.429688 C 215.078125 181.542969 215.636719 181.683594 216.1875 181.851562 C 216.738281 182.015625 217.28125 182.210938 217.8125 182.429688 C 218.34375 182.652344 218.863281 182.894531 219.371094 183.167969 C 219.875 183.4375 220.367188 183.734375 220.847656 184.050781 C 221.324219 184.371094 221.785156 184.710938 222.230469 185.078125 C 222.675781 185.441406 223.101562 185.824219 223.507812 186.230469 C 223.914062 186.636719 224.296875 187.0625 224.660156 187.503906 C 225.027344 187.949219 225.367188 188.410156 225.6875 188.886719 C 226.003906 189.363281 226.300781 189.851562 226.570312 190.359375 C 226.839844 190.863281 227.085938 191.382812 227.304688 191.910156 C 227.523438 192.441406 227.714844 192.980469 227.882812 193.527344 C 228.046875 194.078125 228.183594 194.632812 228.296875 195.195312 C 228.40625 195.753906 228.488281 196.320312 228.546875 196.890625 C 228.601562 197.460938 228.625 198.03125 228.625 198.605469 C 229.023438 198.605469 229.421875 198.578125 229.816406 198.523438 C 230.210938 198.472656 230.601562 198.394531 230.988281 198.296875 C 231.375 198.195312 231.75 198.066406 232.121094 197.917969 C 232.492188 197.769531 232.847656 197.597656 233.195312 197.402344 C 233.542969 197.207031 233.878906 196.992188 234.199219 196.757812 C 234.519531 196.519531 234.820312 196.261719 235.109375 195.988281 C 235.398438 195.710938 235.664062 195.421875 235.914062 195.109375 C 236.164062 194.800781 236.394531 194.476562 236.601562 194.140625 C 236.8125 193.800781 236.996094 193.453125 237.160156 193.089844 C 237.324219 192.726562 237.464844 192.355469 237.582031 191.976562 C 237.695312 191.597656 237.789062 191.210938 237.855469 190.820312 C 237.921875 190.429688 237.964844 190.035156 237.980469 189.640625 C 237.996094 189.242188 237.988281 188.847656 237.953125 188.453125 C 237.921875 188.058594 237.859375 187.664062 237.777344 187.277344 C 237.691406 186.890625 237.585938 186.507812 237.453125 186.132812 C 237.320312 185.761719 237.164062 185.394531 236.984375 185.042969 C 236.363281 183.875 235.667969 182.753906 234.898438 181.679688 C 234.128906 180.609375 233.289062 179.589844 232.378906 178.632812 C 231.46875 177.671875 230.5 176.777344 229.46875 175.945312 C 228.4375 175.117188 227.355469 174.359375 226.21875 173.675781 C 225.085938 172.992188 223.910156 172.386719 222.695312 171.863281 C 221.476562 171.335938 220.230469 170.894531 218.953125 170.539062 C 217.679688 170.179688 216.382812 169.910156 215.070312 169.726562 C 213.757812 169.542969 212.4375 169.449219 211.109375 169.445312 Z M 211.109375 169.445312 " fill-opacity="1" fill-rule="nonzero"/></g><g fill="#555555" fill-opacity="1"><g transform="translate(7.103953, 256.057469)"><g><path d="M 32.6875 -19.054688 C 32.6875 -13.1875 27.378906 -7.824219 21.511719 -7.824219 C 15.644531 -7.824219 10.335938 -13.1875 10.335938 -19.054688 C 10.335938 -24.921875 15.644531 -30.226562 21.511719 -30.226562 C 27.378906 -30.226562 32.6875 -24.921875 32.6875 -19.054688 Z M 34.640625 -4.75 C 38.554688 -8.324219 41.066406 -13.464844 41.066406 -18.996094 C 41.066406 -29.503906 32.015625 -38.554688 21.511719 -38.554688 C 11.007812 -38.554688 1.957031 -29.503906 1.957031 -18.996094 C 1.957031 -8.492188 11.007812 0.558594 21.511719 0.558594 C 23.019531 0.558594 24.527344 0.390625 25.980469 0 L 43.304688 0 L 43.304688 -6.648438 L 38.777344 -6.648438 Z M 34.640625 -4.75 "/></g></g></g><g fill="#555555" fill-opacity="1"><g transform="translate(53.25684, 256.057469)"><g><path d="M 2.792969 -10.617188 C 2.792969 -3.96875 5.476562 0.558594 12.070312 0.558594 C 15.308594 0.558594 17.9375 -0.894531 19.613281 -3.015625 L 19.613281 0 L 27.992188 0 L 27.992188 -24.640625 L 19.613281 -24.640625 L 19.613281 -12.292969 C 19.613281 -8.996094 17.542969 -6.144531 14.917969 -6.144531 C 12.292969 -6.144531 11.175781 -7.765625 11.175781 -10.617188 L 11.175781 -24.640625 L 2.792969 -24.640625 Z M 2.792969 -10.617188 "/></g></g></g><g fill="#555555" fill-opacity="1"><g transform="translate(87.396577, 256.057469)"><g><path d="M 2.90625 -33.078125 C 2.90625 -30.394531 5.085938 -28.160156 7.824219 -28.160156 C 10.503906 -28.160156 12.738281 -30.394531 12.738281 -33.078125 C 12.738281 -35.816406 10.503906 -37.996094 7.824219 -37.996094 C 5.085938 -37.996094 2.90625 -35.816406 2.90625 -33.078125 Z M 12.011719 0 L 12.011719 -24.640625 L 3.632812 -24.640625 L 3.632812 0 Z M 12.011719 0 "/></g></g></g><g fill="#555555" fill-opacity="1"><g transform="translate(105.835434, 256.057469)"><g><path d="M 15.925781 -18.664062 C 18.828125 -18.664062 20.671875 -17.152344 20.785156 -14.75 L 29.109375 -14.75 C 28.71875 -20.449219 23.636719 -25.199219 15.644531 -25.199219 C 7.429688 -25.199219 1.957031 -19.332031 1.957031 -12.292969 C 1.957031 -5.253906 7.097656 0.558594 15.644531 0.558594 C 23.132812 0.558594 28.105469 -3.6875 28.941406 -9.164062 L 20.785156 -9.164062 C 20.507812 -6.929688 18.496094 -5.8125 15.925781 -5.8125 C 12.011719 -5.8125 10.894531 -9.386719 10.894531 -12.238281 C 10.894531 -15.03125 12.125 -18.664062 15.925781 -18.664062 Z M 15.925781 -18.664062 "/></g></g></g><g fill="#555555" fill-opacity="1"><g transform="translate(139.472307, 256.057469)"><g><path d="M 11.734375 -10.894531 L 20.394531 0 L 31.121094 0 L 19.386719 -12.90625 L 30.003906 -24.640625 L 19.613281 -24.640625 L 11.734375 -14.863281 L 11.734375 -41.90625 L 3.351562 -41.90625 L 3.351562 0 L 11.734375 0 Z M 11.734375 -10.894531 "/></g></g></g><g fill="#555555" fill-opacity="1"><g transform="translate(171.712303, 256.057469)"><g><path d="M 21.679688 -11.117188 C 21.679688 -8.605469 19.554688 -6.539062 17.042969 -6.539062 L 11.734375 -6.539062 L 11.734375 -15.699219 L 17.042969 -15.699219 C 19.554688 -15.699219 21.679688 -13.578125 21.679688 -11.117188 Z M 19.054688 -26.988281 C 19.054688 -24.585938 17.042969 -22.574219 14.640625 -22.574219 L 11.734375 -22.574219 L 11.734375 -31.402344 L 14.640625 -31.402344 C 17.042969 -31.402344 19.054688 -29.445312 19.054688 -26.988281 Z M 30.226562 -10.894531 C 30.226562 -16.035156 26.765625 -19.445312 22.519531 -20.449219 C 25.367188 -21.734375 27.042969 -24.640625 27.042969 -28.496094 C 27.042969 -33.691406 22.910156 -37.996094 16.425781 -37.996094 L 3.351562 -37.996094 L 3.351562 0 L 18.71875 0 C 25.980469 0 30.226562 -4.359375 30.226562 -10.894531 Z M 30.226562 -10.894531 "/></g></g></g><g fill="#555555" fill-opacity="1"><g transform="translate(205.293294, 256.057469)"><g><path d="M 22.628906 -12.292969 C 22.628906 -9.050781 20.113281 -6.144531 16.761719 -6.144531 C 13.410156 -6.144531 10.894531 -9.050781 10.894531 -12.292969 C 10.894531 -15.535156 13.410156 -18.4375 16.761719 -18.4375 C 20.113281 -18.4375 22.628906 -15.535156 22.628906 -12.292969 Z M 31.011719 -24.585938 L 22.628906 -24.585938 L 22.628906 -21.625 C 20.449219 -24.304688 17.320312 -25.199219 14.191406 -25.199219 C 7.207031 -25.199219 1.957031 -19.109375 1.957031 -12.292969 C 1.957031 -5.476562 7.207031 0.558594 14.191406 0.558594 C 17.320312 0.558594 20.953125 -0.445312 22.628906 -2.960938 L 22.628906 0 L 31.011719 0 Z M 31.011719 -24.585938 "/></g></g></g><g fill="#555555" fill-opacity="1"><g transform="translate(242.45029, 256.057469)"><g><path d="M 26.207031 -6.648438 L 14.25 -6.648438 L 26.09375 -24.640625 L 1.398438 -24.640625 L 1.398438 -18.269531 L 13.242188 -18.269531 L 0.28125 0 L 26.207031 0 Z M 26.207031 -6.648438 "/></g></g></g><g fill="#555555" fill-opacity="1"><g transform="translate(272.287668, 256.057469)"><g><path d="M 22.628906 -12.292969 C 22.628906 -9.050781 20.113281 -6.144531 16.761719 -6.144531 C 13.410156 -6.144531 10.894531 -9.050781 10.894531 -12.292969 C 10.894531 -15.535156 13.410156 -18.4375 16.761719 -18.4375 C 20.113281 -18.4375 22.628906 -15.535156 22.628906 -12.292969 Z M 31.011719 -24.585938 L 22.628906 -24.585938 L 22.628906 -21.625 C 20.449219 -24.304688 17.320312 -25.199219 14.191406 -25.199219 C 7.207031 -25.199219 1.957031 -19.109375 1.957031 -12.292969 C 1.957031 -5.476562 7.207031 0.558594 14.191406 0.558594 C 17.320312 0.558594 20.953125 -0.445312 22.628906 -2.960938 L 22.628906 0 L 31.011719 0 Z M 31.011719 -24.585938 "/></g></g></g><g fill="#555555" fill-opacity="1"><g transform="translate(309.444663, 256.057469)"><g><path d="M 22.628906 -12.292969 C 22.628906 -9.050781 20.113281 -6.144531 16.761719 -6.144531 C 13.410156 -6.144531 10.894531 -9.050781 10.894531 -12.292969 C 10.894531 -15.535156 13.410156 -18.4375 16.761719 -18.4375 C 20.113281 -18.4375 22.628906 -15.535156 22.628906 -12.292969 Z M 31.011719 -24.585938 L 22.628906 -24.585938 L 22.628906 -21.625 C 20.449219 -24.304688 17.320312 -25.199219 14.191406 -25.199219 C 7.207031 -25.199219 1.957031 -19.109375 1.957031 -12.292969 C 1.957031 -5.476562 7.207031 0.558594 14.191406 0.558594 C 17.320312 0.558594 20.953125 -0.445312 22.628906 -2.960938 L 22.628906 0 L 31.011719 0 Z M 31.011719 -24.585938 "/></g></g></g><g fill="#555555" fill-opacity="1"><g transform="translate(346.601659, 256.057469)"><g><path d="M 17.265625 -18.4375 C 18.550781 -18.4375 19.78125 -18.046875 20.617188 -17.042969 L 20.730469 -17.042969 L 20.730469 -24.640625 C 20.058594 -24.976562 18.941406 -25.199219 18.214844 -25.199219 C 15.140625 -25.199219 13.019531 -23.46875 11.734375 -21.625 L 11.734375 -24.640625 L 3.351562 -24.640625 L 3.351562 0 L 11.734375 0 L 11.734375 -12.292969 C 11.734375 -15.253906 14.136719 -18.4375 17.265625 -18.4375 Z M 17.265625 -18.4375 "/></g></g></g></svg>